<svg xmlns="http://www.w3.org/2000/svg" viewBox="0 0 520 520">
  <defs>
    <radialGradient id="warm" cx="52%" cy="38%" r="62%">
      <stop offset="0" stop-color="#fff2a8"/>
      <stop offset=".26" stop-color="#ffb11f"/>
      <stop offset=".58" stop-color="#3d1908"/>
      <stop offset="1" stop-color="#030404"/>
    </radialGradient>
    <filter id="shine"><feGaussianBlur stdDeviation="6"/></filter>
  </defs>
  <rect width="520" height="520" fill="url(#warm)"/>
  <ellipse cx="260" cy="420" rx="118" ry="24" fill="#ff8b18" opacity=".22"/>
  <circle cx="260" cy="208" r="145" fill="none" stroke="#ffe0a2" stroke-width="10" opacity=".92"/>
  <circle cx="260" cy="208" r="118" fill="rgba(255,210,95,.07)" stroke="#ffc45a" stroke-width="3" opacity=".7"/>
  <g stroke="#ffce4c" stroke-width="7" fill="none" filter="url(#shine)">
    <path d="M260 132v176"/>
    <path d="M260 170c-40-34-82-28-92 10 42 8 69 34 92 78"/>
    <path d="M260 170c40-34 82-28 92 10-42 8-69 34-92 78"/>
    <path d="M224 240c-26-6-48 4-56 30 34 2 63 14 92 38"/>
    <path d="M296 240c26-6 48 4 56 30-34 2-63 14-92 38"/>
  </g>
  <g stroke="#fff0a8" stroke-width="3" fill="none">
    <path d="M260 132v176"/>
    <path d="M260 170c-40-34-82-28-92 10 42 8 69 34 92 78"/>
    <path d="M260 170c40-34 82-28 92 10-42 8-69 34-92 78"/>
    <path d="M224 240c-26-6-48 4-56 30 34 2 63 14 92 38"/>
    <path d="M296 240c26-6 48 4 56 30-34 2-63 14-92 38"/>
  </g>
  <path d="M212 332h96l-18 68h-60z" fill="#3d2a1d" stroke="#ffcc62" stroke-width="5"/>
  <rect x="214" y="398" width="92" height="18" rx="3" fill="#151312" stroke="#c9c9c9" stroke-width="2"/>
  <rect x="218" y="418" width="84" height="16" rx="3" fill="#151312" stroke="#c9c9c9" stroke-width="2"/>
  <rect x="226" y="436" width="68" height="18" rx="3" fill="#080808" stroke="#c9c9c9" stroke-width="2"/>
</svg>
