<svg xmlns="http://www.w3.org/2000/svg" viewBox="0 0 520 520">
  <defs>
    <radialGradient id="purple" cx="62%" cy="48%" r="74%">
      <stop offset="0" stop-color="#9d4cff"/>
      <stop offset=".38" stop-color="#4e186c"/>
      <stop offset="1" stop-color="#05030b"/>
    </radialGradient>
    <filter id="soft"><feGaussianBlur stdDeviation="8"/></filter>
  </defs>
  <rect width="520" height="520" fill="url(#purple)"/>
  <g stroke="#b98cff" stroke-width="3" fill="none" opacity=".55">
    <path d="M250 44h118v64h-48v80h96"/>
    <path d="M122 116h94v74h76"/>
    <path d="M418 268h-92v72H214"/>
    <path d="M186 420h116v-74h88"/>
    <path d="M72 322h132v-76h92"/>
  </g>
  <g fill="#caa7ff" opacity=".64">
    <circle cx="250" cy="44" r="8"/><circle cx="122" cy="116" r="8"/><circle cx="418" cy="268" r="8"/><circle cx="186" cy="420" r="8"/><circle cx="72" cy="322" r="8"/>
  </g>
  <path d="M0 340c54-24 98-52 132-84 44-42 78-54 118-40" stroke="#ff8ef4" stroke-width="14" fill="none" filter="url(#soft)" opacity=".8"/>
  <path d="M-22 352c74-30 122-64 160-96 38-32 70-42 112-32" stroke="#ffd5ff" stroke-width="6" fill="none"/>
  <rect x="298" y="160" width="142" height="142" rx="8" fill="#8b38d3" stroke="#dcbaff" stroke-width="5"/>
  <text x="368" y="256" text-anchor="middle" font-size="82" font-family="Arial, Helvetica, sans-serif" font-weight="800" fill="#fff">Ai</text>
  <rect x="146" y="140" width="74" height="74" rx="8" fill="#7c31bd" stroke="#cda6ff" stroke-width="4"/>
  <rect x="248" y="310" width="74" height="74" rx="8" fill="#7c31bd" stroke="#cda6ff" stroke-width="4"/>
  <path d="M170 188h28M184 174v28" stroke="#fff" stroke-width="7"/>
  <path d="M278 356h16v-24h-16zM266 364h42" stroke="#fff" stroke-width="6" fill="none"/>
</svg>
